<?xml version="1.0" standalone="no"?>
<!DOCTYPE svg PUBLIC "-//W3C//DTD SVG 20010904//EN"
 "http://www.w3.org/TR/2001/REC-SVG-20010904/DTD/svg10.dtd">
<svg version="1.0" xmlns="http://www.w3.org/2000/svg"
 width="915.000000pt" height="1280.000000pt" viewBox="0 0 915.000000 1280.000000"
 preserveAspectRatio="xMidYMid meet">
<metadata>
Created by potrace 1.15, written by Peter Selinger 2001-2017
</metadata>
<g transform="translate(0.000000,1280.000000) scale(0.100000,-0.100000)"
fill="#607d8b" stroke="none">
<path d="M1540 12790 c-14 -4 -37 -13 -52 -19 l-28 -10 26 -26 c15 -15 32 -24
40 -21 12 4 48 76 42 81 -2 1 -14 -1 -28 -5z"/>
<path d="M5995 12766 c-23 -17 -17 -20 48 -31 65 -11 81 -24 130 -103 102
-169 163 -318 273 -672 33 -107 41 -249 24 -430 -6 -72 -9 -134 -7 -137 10 -9
47 76 63 144 12 49 15 96 11 168 -7 139 -60 391 -102 485 -19 41 -53 129 -76
195 -76 218 -137 313 -228 359 -63 32 -112 40 -136 22z"/>
<path d="M5338 12739 c-32 -18 -19 -27 46 -31 63 -4 65 -5 113 -58 52 -58 118
-110 140 -110 7 0 13 11 13 26 0 18 -18 44 -63 89 -50 50 -75 67 -117 79 -61
18 -107 20 -132 5z"/>
<path d="M5947 12712 c-22 -25 -21 -38 8 -120 14 -38 25 -75 25 -82 0 -6 9
-24 19 -39 32 -44 59 -122 102 -295 41 -160 73 -246 97 -254 19 -6 15 91 -8
186 -11 45 -49 156 -85 247 -71 180 -100 267 -111 333 -7 45 -21 53 -47 24z"/>
<path d="M1255 12608 c-100 -102 -176 -210 -253 -363 -27 -55 -65 -123 -84
-151 -33 -49 -67 -121 -162 -349 -51 -123 -91 -178 -144 -200 -25 -11 -32 -19
-25 -26 12 -12 79 3 105 23 8 7 62 112 118 233 221 474 302 616 471 828 43 53
76 97 72 97 -3 0 -47 -42 -98 -92z"/>
<path d="M5341 12664 c-39 -50 -24 -91 80 -231 44 -57 79 -112 79 -120 0 -64
247 -309 378 -377 19 -10 36 -15 39 -12 3 3 -52 65 -123 138 -146 149 -188
199 -262 309 -50 73 -152 272 -152 296 0 24 -19 22 -39 -3z"/>
<path d="M305 12576 c-19 -13 -19 -15 -1 -54 25 -55 24 -198 -3 -372 -31 -198
-27 -286 13 -312 19 -13 21 -9 18 38 -2 25 6 131 18 236 23 201 24 367 1 441
-13 41 -18 44 -46 23z"/>
<path d="M176 12524 c-79 -60 -105 -151 -131 -446 -8 -95 -22 -210 -30 -255
-14 -75 -14 -89 0 -143 22 -86 79 -210 143 -315 195 -319 194 -317 229 -432
82 -277 212 -541 441 -893 214 -330 471 -531 677 -529 l60 0 -50 18 c-77 28
-193 89 -265 139 -165 116 -359 343 -455 532 -15 30 -45 81 -66 112 -53 77
-141 245 -180 343 -17 44 -62 170 -99 280 -66 196 -69 203 -154 325 -206 295
-266 480 -223 681 9 41 26 151 37 244 32 265 44 311 94 350 17 14 28 25 25 25
-3 0 -27 -16 -53 -36z"/>
<path d="M1445 12538 c-18 -16 -31 -41 -39 -79 -11 -44 -33 -82 -113 -190
-122 -163 -184 -258 -223 -341 -32 -68 -37 -97 -18 -116 12 -12 7 -20 -56 -89
-17 -18 -25 -33 -19 -33 38 0 139 129 335 425 69 105 145 212 168 238 66 75
42 65 -39 -16 -68 -68 -124 -146 -291 -405 -40 -62 -74 -111 -76 -109 -7 7 26
90 61 152 18 33 81 128 139 210 58 83 121 180 141 217 37 70 68 148 61 155 -2
2 -16 -6 -31 -19z"/>
<path d="M1654 12545 c-4 -9 -4 -33 0 -55 5 -30 -1 -54 -28 -117 -93 -217
-305 -584 -398 -691 -94 -106 -65 -96 41 15 110 114 170 197 200 277 11 30 37
80 57 112 20 31 65 116 100 189 69 140 96 234 78 263 -15 23 -43 27 -50 7z"/>
<path d="M6717 12500 c-23 -19 -68 -118 -46 -105 5 4 9 12 9 18 0 25 51 87 71
87 29 0 55 -67 74 -186 8 -54 20 -115 26 -134 6 -19 11 -89 11 -155 0 -96 -5
-140 -26 -217 -45 -177 -158 -413 -289 -604 -34 -50 -102 -167 -151 -260 -102
-194 -174 -325 -239 -438 -50 -86 -74 -141 -55 -130 27 17 196 293 264 432 82
166 120 233 268 476 216 352 273 509 283 781 4 131 3 146 -22 230 -31 106 -69
179 -106 206 -34 24 -40 24 -72 -1z"/>
<path d="M5722 12488 c-22 -22 -13 -38 61 -116 39 -43 103 -115 141 -160 115
-136 152 -145 73 -16 -61 98 -122 180 -185 247 -57 59 -70 65 -90 45z"/>
<path d="M453 12435 c-12 -8 -26 -30 -31 -48 -13 -41 -25 -184 -26 -312 -1
-55 -6 -174 -10 -265 -10 -184 -3 -229 40 -257 14 -9 27 -14 29 -12 2 3 -1 52
-7 109 -15 146 -3 543 20 688 10 61 15 112 12 112 -3 0 -15 -7 -27 -15z"/>
<path d="M583 12423 c-20 -7 -15 -39 13 -96 l27 -52 -9 -175 c-13 -262 -12
-414 5 -433 34 -42 38 -24 45 251 7 279 1 371 -31 458 -18 48 -27 57 -50 47z"/>
<path d="M6683 12298 c-34 -40 -44 -92 -50 -256 -3 -92 -12 -187 -19 -212 -15
-51 -4 -74 20 -38 34 53 69 291 64 437 -2 68 -5 81 -15 69z"/>
<path d="M5797 11964 c-26 -26 6 -105 97 -242 97 -148 128 -218 127 -287 -1
-11 -1 -94 -1 -185 0 -191 -11 -280 -51 -402 -58 -180 -163 -355 -304 -510
-77 -84 -271 -331 -289 -368 -14 -28 116 114 233 255 283 340 384 505 437 712
21 84 24 115 23 296 0 241 -12 314 -74 444 -57 121 -182 302 -198 287z"/>
<path d="M1453 11764 c-3 -8 -3 -39 0 -67 7 -71 -7 -98 -80 -151 -170 -124
-317 -283 -311 -334 4 -36 26 -39 34 -5 16 75 31 101 88 157 34 34 97 86 140
116 44 30 93 72 109 92 33 41 59 135 50 180 -6 31 -20 37 -30 12z"/>
<path d="M1294 11642 c-73 -53 -194 -155 -190 -160 8 -8 50 21 145 100 117 98
118 98 106 98 -6 0 -33 -17 -61 -38z"/>
<path d="M5685 11219 c-11 -17 1 -21 15 -4 8 9 8 15 2 15 -6 0 -14 -5 -17 -11z"/>
<path d="M5720 11228 c0 -2 8 -25 19 -53 10 -27 22 -75 26 -105 4 -30 13 -75
22 -100 11 -34 14 -84 12 -212 -2 -92 -1 -170 3 -173 3 -3 17 24 32 60 29 72
34 165 16 301 -23 176 -61 275 -108 282 -12 2 -22 2 -22 0z"/>
<path d="M5650 11160 c-6 -12 -9 -24 -7 -27 3 -2 11 5 17 17 6 12 9 24 7 27
-3 2 -11 -5 -17 -17z"/>
<path d="M910 11160 c-8 -5 -10 -10 -5 -10 30 -1 35 -23 50 -210 28 -342 67
-451 216 -604 49 -50 91 -87 95 -84 3 4 -27 65 -68 135 -170 290 -172 295
-183 518 -8 150 -20 216 -46 244 -22 23 -36 26 -59 11z"/>
<path d="M854 11126 c-16 -14 -24 -25 -19 -25 15 -1 61 37 54 44 -4 3 -20 -5
-35 -19z"/>
<path d="M774 10964 c-13 -20 -19 -53 -22 -123 -5 -109 2 -110 42 -8 41 104
26 201 -20 131z"/>
<path d="M5657 10922 c-32 -73 -42 -109 -72 -258 -34 -175 -93 -306 -198 -442
-53 -69 -146 -153 -202 -183 -25 -13 -45 -28 -45 -32 0 -11 77 33 140 78 56
41 156 145 197 205 97 143 185 398 217 632 10 67 -7 67 -37 0z"/>
<path d="M2240 10611 c-38 -38 -64 -128 -56 -196 8 -67 30 -129 109 -300 35
-77 69 -163 75 -191 24 -110 103 -274 133 -274 30 0 -3 136 -59 248 -16 31
-34 80 -41 107 -6 28 -37 104 -67 170 -82 176 -97 222 -98 295 -1 51 5 76 25
118 29 58 22 66 -21 23z"/>
<path d="M2371 10601 l-24 -19 31 -16 c18 -9 32 -21 32 -26 0 -5 7 -51 15
-102 8 -51 24 -159 35 -240 24 -173 57 -293 110 -403 21 -44 53 -111 70 -150
34 -77 55 -105 78 -105 12 0 13 9 9 44 -9 64 -40 140 -97 236 -66 110 -86 181
-110 370 -11 85 -27 191 -36 235 -16 79 -60 187 -79 192 -5 1 -21 -6 -34 -16z"/>
<path d="M3914 10605 c-10 -8 -14 -15 -8 -15 6 0 17 7 24 15 16 19 9 19 -16 0z"/>
<path d="M3855 10589 c-11 -17 -2 -18 19 -3 17 12 17 14 4 14 -9 0 -20 -5 -23
-11z"/>
<path d="M3971 10526 c-11 -24 -27 -88 -36 -142 -9 -54 -26 -124 -37 -154 -35
-94 -97 -346 -109 -441 -16 -124 -1 -209 49 -283 52 -76 89 -104 150 -112 29
-3 52 -3 52 2 0 4 -43 51 -95 104 -54 56 -103 115 -115 141 -22 49 -26 119 -9
151 6 12 18 53 26 91 8 39 34 134 59 212 24 78 53 180 64 226 21 88 38 249 26
249 -4 0 -15 -20 -25 -44z"/>
<path d="M3796 10531 c-24 -25 -28 -39 -37 -132 -18 -199 -63 -462 -119 -689
-33 -134 -55 -259 -46 -267 16 -16 99 245 134 422 43 215 53 276 72 450 12 99
25 195 30 213 10 40 2 41 -34 3z"/>
<path d="M5045 10294 c-36 -170 -66 -281 -90 -329 -13 -27 -22 -51 -20 -53 2
-2 26 29 54 68 65 93 94 180 95 287 1 117 -17 129 -39 27z"/>
<path d="M5168 10320 c-46 -62 -49 -124 -5 -118 29 4 53 76 40 121 l-9 31 -26
-34z"/>
<path d="M1403 10300 c-45 -18 -69 -234 -38 -349 44 -168 161 -294 317 -342
35 -11 178 -48 318 -83 140 -36 286 -76 325 -90 38 -14 71 -24 72 -22 2 2 -14
19 -35 38 -53 48 -128 74 -307 109 -227 45 -302 65 -391 109 -136 66 -217 173
-250 330 -17 79 -14 189 7 263 12 45 11 47 -18 37z"/>
<path d="M1499 10274 c-11 -13 -10 -26 9 -77 12 -34 22 -69 22 -78 0 -33 80
-176 130 -232 100 -112 335 -239 530 -288 46 -11 148 -46 229 -78 166 -67 232
-87 314 -96 137 -17 19 37 -363 164 -420 139 -469 160 -571 244 -91 74 -212
273 -249 410 -13 49 -28 58 -51 31z"/>
<path d="M5924 10227 c-75 -93 -214 -275 -258 -337 l-39 -55 77 75 c43 41 101
107 130 145 55 73 149 225 143 231 -2 2 -26 -24 -53 -59z"/>
<path d="M4795 9818 c-55 -39 -135 -93 -177 -121 -43 -27 -78 -51 -78 -54 0
-6 52 25 200 124 136 90 180 123 165 123 -5 0 -55 -33 -110 -72z"/>
<path d="M5465 9739 c-60 -33 -121 -69 -135 -79 -88 -62 -207 -104 -351 -123
-78 -11 -94 -16 -97 -31 -4 -17 1 -18 49 -13 72 9 217 59 314 108 44 22 114
58 157 79 87 44 198 120 175 120 -1 0 -52 -27 -112 -61z"/>
<path d="M4466 9609 c-83 -43 -165 -68 -281 -84 -55 -8 -103 -15 -107 -15 -5
0 -8 -5 -8 -11 0 -15 108 -5 195 17 58 15 265 107 265 118 0 8 3 9 -64 -25z"/>
<path d="M1552 9435 c-33 -73 -8 -123 142 -285 77 -82 125 -144 142 -180 14
-30 31 -66 38 -79 20 -43 92 -115 149 -149 30 -18 125 -58 211 -87 166 -58
215 -80 284 -127 50 -35 73 -27 56 18 -12 35 -83 71 -234 119 -63 21 -148 51
-188 67 l-73 30 -156 187 c-163 196 -268 344 -317 449 -16 34 -33 62 -36 62
-4 0 -12 -11 -18 -25z"/>
<path d="M4500 9422 c-58 -20 -124 -51 -118 -57 1 -2 26 1 53 6 40 7 332 38
370 39 6 0 2 5 -7 11 -10 5 -68 12 -130 15 -93 4 -123 1 -168 -14z"/>
<path d="M4330 9340 c-9 -6 -10 -10 -3 -10 6 0 15 5 18 10 8 12 4 12 -15 0z"/>
<path d="M3550 9319 c-238 -23 -589 -34 -688 -22 -56 7 -77 6 -90 -4 -32 -24
5 -30 237 -37 216 -6 235 -6 387 19 266 44 394 28 487 -63 36 -35 37 -38 37
-108 0 -75 11 -99 30 -65 18 35 23 107 10 161 -21 87 -94 142 -185 139 -16 -1
-118 -10 -225 -20z"/>
<path d="M2680 9273 c-33 -52 -69 -140 -77 -191 -4 -23 3 -52 22 -97 15 -36
31 -65 35 -65 12 0 20 68 20 180 1 117 10 171 34 195 19 19 20 25 6 25 -6 0
-24 -21 -40 -47z"/>
<path d="M4842 9238 c-23 -46 -53 -118 -67 -162 -21 -66 -37 -92 -97 -164 -89
-104 -150 -154 -225 -182 -48 -18 -77 -21 -183 -20 -69 1 -130 1 -136 1 -7 -1
-25 -15 -42 -33 -31 -31 -36 -45 -62 -193 -9 -52 -25 -82 -119 -220 -177 -261
-253 -400 -336 -617 -90 -232 -150 -266 -420 -238 -104 10 -123 15 -154 40
-20 15 -44 30 -53 33 -30 11 -21 -26 15 -60 69 -66 117 -76 287 -61 134 12
215 56 290 157 44 59 143 254 205 406 35 86 94 181 220 360 96 136 145 251
145 342 l0 43 88 0 c153 0 299 50 423 146 107 82 172 175 229 328 69 182 63
240 -8 94z"/>
<path d="M4163 9178 c-98 -96 -134 -148 -105 -148 16 0 92 88 215 248 24 30
-6 4 -110 -100z"/>
<path d="M4378 9102 c-35 -38 -118 -156 -118 -166 0 -19 52 24 85 70 88 121
107 178 33 96z"/>
<path d="M4395 9035 c-22 -13 -37 -25 -33 -25 9 0 78 41 78 46 0 6 -3 5 -45
-21z"/>
<path d="M2726 8608 c-3 -13 -6 -43 -6 -67 0 -37 -2 -42 -14 -32 -12 10 -16 6
-25 -24 -11 -40 -2 -77 27 -109 26 -28 71 -48 92 -41 18 6 19 14 16 75 -3 54
-12 86 -39 145 -20 41 -38 75 -40 75 -3 0 -7 -10 -11 -22z"/>
<path d="M3935 8520 c-35 -65 -61 -95 -111 -127 -17 -11 -16 -12 11 -12 46 -1
113 34 120 61 9 40 23 143 20 146 -2 2 -20 -28 -40 -68z"/>
<path d="M3852 8553 c-27 -39 -74 -134 -69 -140 7 -6 40 43 71 105 30 60 29
79 -2 35z"/>
<path d="M4144 8505 c-13 -20 -16 -42 -12 -100 5 -68 11 -86 82 -227 42 -84
132 -244 200 -356 140 -229 212 -381 226 -479 5 -37 6 -157 3 -268 -5 -155 -3
-206 7 -225 13 -24 13 -24 21 -4 14 40 29 200 29 319 0 206 -47 396 -132 526
-83 130 -218 349 -256 420 -77 139 -132 302 -132 388 0 38 -14 40 -36 6z"/>
<path d="M2632 8398 c-18 -18 -14 -95 8 -173 17 -59 19 -87 14 -180 -8 -134 8
-304 36 -377 24 -65 85 -130 137 -147 47 -14 241 -51 268 -51 19 1 19 2 -3 20
-29 24 -109 54 -219 82 l-86 21 -24 53 c-36 80 -53 176 -53 314 0 164 -15 332
-35 398 -16 54 -23 60 -43 40z"/>
<path d="M2950 7960 c-8 -5 -11 -12 -7 -16 18 -18 85 -34 119 -28 21 3 64 -1
100 -11 126 -32 223 -127 216 -214 l-3 -43 32 38 c93 107 -17 203 -302 264
-101 22 -133 24 -155 10z"/>
<path d="M2882 7924 c-30 -21 -52 -66 -62 -127 -8 -50 -7 -54 32 -104 62 -81
70 -85 51 -22 -20 67 -22 183 -4 227 17 40 12 47 -17 26z"/>
<path d="M2940 7833 c-24 -8 -40 -35 -40 -65 0 -35 10 -35 49 -2 29 24 36 25
121 22 93 -3 109 2 63 20 -74 29 -154 39 -193 25z"/>
<path d="M3278 7723 c-42 -48 -47 -84 -18 -113 19 -19 22 -19 50 -5 16 8 32
20 36 26 4 7 -1 7 -16 -1 -12 -6 -23 -10 -25 -8 -2 2 3 26 10 53 7 28 11 53 8
58 -7 12 -29 8 -45 -10z"/>
<path d="M2649 7554 c-10 -12 -14 -106 -17 -422 -7 -581 -6 -649 11 -722 8
-36 46 -198 85 -360 75 -312 136 -597 147 -692 6 -44 18 -73 52 -125 64 -98
132 -236 198 -408 102 -264 174 -428 225 -510 27 -44 71 -115 97 -159 129
-212 313 -333 523 -344 64 -3 98 -10 138 -29 45 -22 62 -25 111 -20 33 4 87
17 122 30 l64 24 -85 7 c-47 4 -173 16 -280 27 -178 19 -200 24 -253 52 -74
39 -182 138 -246 227 -110 151 -265 448 -313 600 -19 61 -79 198 -142 325
-146 297 -172 358 -180 435 -18 162 -109 557 -189 820 l-32 105 3 475 c4 465
-2 680 -18 680 -4 0 -13 -7 -21 -16z"/>
<path d="M4722 6954 c-12 -22 -2 -50 37 -104 16 -23 42 -74 57 -113 32 -86 64
-147 77 -147 16 0 0 105 -28 189 -28 84 -90 184 -117 189 -9 2 -21 -5 -26 -14z"/>
<path d="M5152 6470 c78 -93 147 -170 152 -170 24 0 119 -74 228 -176 175
-164 194 -173 162 -71 -16 51 -19 55 -83 85 -87 41 -173 114 -304 260 -111
124 -180 184 -254 221 -40 20 -34 11 99 -149z"/>
<path d="M5770 5997 c0 -26 96 -60 244 -88 96 -17 178 -21 606 -30 288 -5 541
-15 606 -22 106 -13 114 -16 175 -59 82 -58 147 -95 399 -230 460 -247 618
-393 735 -680 64 -156 86 -290 110 -672 8 -132 23 -287 33 -345 19 -118 20
-191 10 -556 l-7 -250 24 50 c14 28 25 60 25 72 0 48 18 29 23 -25 2 -31 25
-120 50 -197 57 -176 77 -252 77 -301 1 -81 110 -297 197 -389 33 -35 38 -38
41 -19 2 11 -17 54 -42 95 -66 110 -109 230 -181 510 -61 236 -105 383 -125
418 -7 14 -10 13 -17 -6 -4 -12 -8 97 -8 245 1 147 -2 288 -7 314 -16 100 -28
219 -38 383 -22 358 -43 496 -104 672 -98 280 -289 473 -661 669 -60 32 -135
74 -165 94 -145 96 -294 172 -422 216 -163 55 -295 67 -573 50 -159 -10 -526
6 -698 30 -60 8 -152 26 -205 39 -114 29 -102 28 -102 12z"/>
<path d="M4475 3854 c-47 -26 -55 -34 -35 -34 14 1 43 16 65 35 49 43 46 43
-30 -1z"/>
<path d="M3788 3798 c-13 -23 -28 -226 -30 -408 -1 -85 2 -107 35 -204 61
-179 133 -297 171 -283 27 10 18 54 -21 104 -50 66 -91 156 -109 244 -12 58
-15 127 -12 322 2 189 0 247 -9 247 -7 0 -18 -10 -25 -22z"/>
<path d="M7752 3527 c-16 -17 -22 -36 -22 -69 0 -25 -9 -74 -19 -109 -45 -149
-54 -298 -26 -418 33 -139 59 -176 303 -425 124 -127 315 -332 426 -455 111
-124 242 -271 292 -326 114 -126 130 -151 220 -353 40 -90 87 -186 105 -214
28 -43 90 -98 111 -98 11 0 -142 314 -212 437 -83 144 -165 256 -264 361 -45
48 -115 128 -156 177 -41 50 -186 205 -321 345 -386 400 -430 455 -459 579
-17 72 -8 214 24 361 30 144 41 230 29 230 -5 0 -19 -10 -31 -23z"/>
<path d="M4998 3459 c-29 -16 -22 -33 47 -107 36 -38 65 -74 65 -80 0 -15 160
-162 176 -162 19 0 -8 53 -71 140 -53 72 -183 220 -194 220 -3 0 -14 -5 -23
-11z"/>
<path d="M5356 3228 c-20 -28 -20 -72 -1 -173 13 -65 16 -197 20 -690 2 -353
8 -629 14 -655 6 -25 10 -137 11 -250 0 -244 13 -406 38 -487 l19 -59 -29 -26
c-55 -50 -34 -126 77 -289 59 -86 56 -75 81 -349 19 -217 24 -229 44 -100 20
130 23 217 11 266 -7 26 -45 118 -86 203 -69 145 -94 217 -95 266 0 13 10 2
29 -30 33 -57 75 -105 92 -105 17 0 5 49 -37 143 -96 217 -102 250 -89 478 5
84 2 161 -11 280 -15 137 -17 239 -15 609 2 445 -8 747 -30 906 -7 46 -16 84
-20 84 -4 0 -15 -10 -23 -22z"/>
<path d="M7226 3175 c-49 -14 -97 -42 -103 -61 -2 -6 41 -1 99 12 133 30 236
40 279 26 19 -6 63 -14 99 -17 64 -5 64 -5 33 10 -45 21 -204 45 -288 44 -38
0 -92 -7 -119 -14z"/>
<path d="M7165 2984 c-26 -54 -16 -169 28 -326 20 -71 41 -164 47 -209 30
-221 137 -419 330 -609 47 -47 114 -106 149 -132 61 -46 111 -62 111 -35 0 14
-72 85 -210 206 -106 93 -160 149 -195 201 -60 89 -182 555 -216 825 -6 55
-15 104 -19 108 -4 5 -15 -9 -25 -29z"/>
<path d="M4790 2943 c-48 -6 -100 -24 -100 -34 0 -6 14 -7 38 -2 82 18 165 4
376 -63 125 -39 169 -43 164 -16 -8 42 -370 130 -478 115z"/>
<path d="M6052 2914 c-12 -8 -35 -41 -51 -72 -15 -31 -40 -80 -54 -108 -61
-121 -62 -133 -59 -551 2 -253 -1 -384 -8 -388 -6 -4 -10 6 -10 24 0 33 -14
39 -42 18 -14 -11 -15 -20 -6 -62 23 -108 15 -354 -20 -625 -18 -140 -41 -284
-52 -320 -10 -36 -21 -75 -25 -87 -10 -36 12 -27 40 15 47 72 76 177 80 292 1
58 10 150 20 205 9 55 21 186 25 290 6 156 12 208 34 290 31 118 44 267 27
316 -23 65 -32 208 -21 313 16 149 51 263 119 394 21 39 35 72 32 72 -4 0 -17
-7 -29 -16z"/>
<path d="M4641 2849 c-16 -46 -14 -89 4 -89 22 0 34 32 28 78 -7 50 -17 53
-32 11z"/>
<path d="M6620 2806 c-248 -115 -379 -151 -511 -144 -81 5 -110 -6 -93 -33 9
-15 166 -5 240 15 106 28 484 194 484 211 0 7 4 9 -120 -49z"/>
<path d="M3969 2790 c-15 -8 -12 -25 27 -149 24 -77 87 -310 139 -517 53 -207
97 -380 100 -384 2 -4 16 -52 31 -106 27 -105 33 -155 58 -539 8 -132 18 -266
21 -297 13 -126 55 -206 122 -234 53 -23 55 -17 13 48 -71 108 -99 245 -101
478 0 63 -4 153 -9 200 -4 49 -4 89 1 95 22 22 8 109 -41 255 -28 83 -93 318
-145 523 -105 408 -172 637 -189 637 -6 0 -18 -5 -27 -10z"/>
<path d="M4658 2688 c-21 -38 -14 -145 20 -284 20 -81 32 -157 32 -199 0 -37
5 -118 11 -179 10 -89 9 -156 -4 -341 -17 -247 -12 -358 18 -475 36 -135 7
-344 -76 -549 -21 -53 -36 -97 -35 -99 8 -7 78 101 110 169 78 166 87 404 23
617 -11 37 -11 61 1 145 20 144 19 559 -2 747 -21 188 -67 470 -77 470 -5 0
-14 -10 -21 -22z"/>
<path d="M6222 2577 c-19 -9 -23 -16 -18 -39 20 -101 145 -314 261 -448 32
-36 146 -155 254 -265 213 -217 221 -229 321 -457 23 -54 47 -98 52 -98 17 0
-2 150 -24 195 -70 137 -133 216 -391 488 -249 262 -337 383 -397 542 -12 33
-25 67 -29 76 -5 13 -10 15 -29 6z"/>
<path d="M7812 1594 c-18 -12 -22 -25 -22 -67 -1 -80 -34 -214 -101 -407 -34
-96 -77 -233 -95 -305 -52 -201 -115 -477 -110 -482 3 -3 12 12 21 33 63 145
78 186 86 239 17 103 56 242 133 475 72 220 107 356 121 473 8 61 3 67 -33 41z"/>
<path d="M7144 1194 c-4 -23 1 -76 15 -143 33 -167 34 -176 22 -248 -6 -37
-25 -148 -41 -245 -51 -298 -51 -379 -1 -298 12 21 22 69 30 146 6 64 23 189
37 278 35 218 31 366 -12 474 -15 39 -32 72 -36 72 -4 0 -10 -16 -14 -36z"/>
<path d="M5799 663 c-9 -25 -13 -101 -14 -223 -1 -126 -5 -200 -15 -231 -7
-25 -10 -54 -6 -65 7 -18 9 -17 21 7 57 108 86 549 35 549 -4 0 -14 -17 -21
-37z"/>
<path d="M4735 648 c-3 -18 -8 -170 -11 -338 -4 -268 -3 -302 10 -280 43 75
60 343 35 544 -13 101 -23 124 -34 74z"/>
<path d="M4407 517 c-31 -48 -38 -120 -26 -259 6 -71 9 -138 6 -150 -9 -31 13
-112 26 -99 14 14 31 414 21 481 l-9 54 -18 -27z"/>
</g>
</svg>
